<svg width="16" height="16" viewBox="0 0 16 16" fill="none" xmlns="http://www.w3.org/2000/svg">
<g clip-path="url(#clip0_31_17559)">
<path d="M7.4964 6.99288C7.77418 7.2711 8.22529 7.2711 8.50351 6.99288L11.2733 4.22355C11.4067 4.0899 11.4816 3.9088 11.4816 3.71999C11.4816 3.53118 11.4067 3.35009 11.2733 3.21644L8.50351 0.447103C8.43745 0.380853 8.35897 0.328289 8.27256 0.292424C8.18615 0.25656 8.09351 0.238098 7.99995 0.238098C7.9064 0.238098 7.81376 0.25656 7.72735 0.292424C7.64094 0.328289 7.56246 0.380853 7.4964 0.447103L4.72662 3.21644C4.66037 3.2825 4.60781 3.36098 4.57194 3.44739C4.53608 3.5338 4.51761 3.62643 4.51761 3.71999C4.51761 3.81355 4.53608 3.90619 4.57194 3.9926C4.60781 4.07901 4.66037 4.15749 4.72662 4.22355L7.4964 6.99288ZM11.7768 11.2729C12.0546 11.5511 12.5057 11.5511 12.784 11.2729L15.5537 8.50355C15.6871 8.3699 15.762 8.1888 15.762 7.99999C15.762 7.81118 15.6871 7.63009 15.5537 7.49644L12.784 4.7271C12.7179 4.66085 12.6394 4.60829 12.553 4.57242C12.4666 4.53656 12.374 4.5181 12.2804 4.5181C12.1868 4.5181 12.0942 4.53656 12.0078 4.57242C11.9214 4.60829 11.8429 4.66085 11.7768 4.7271L9.00706 7.49644C8.94081 7.5625 8.88825 7.64098 8.85238 7.72739C8.81652 7.8138 8.79806 7.90643 8.79806 7.99999C8.79806 8.09355 8.81652 8.18619 8.85238 8.2726C8.88825 8.359 8.94081 8.43749 9.00706 8.50355L11.7768 11.2729ZM11.2728 11.7769L8.50351 9.0071C8.43745 8.94085 8.35897 8.88829 8.27256 8.85242C8.18615 8.81656 8.09351 8.7981 7.99995 8.7981C7.9064 8.7981 7.81376 8.81656 7.72735 8.85242C7.64094 8.88829 7.56246 8.94085 7.4964 9.0071L4.72706 11.7769C4.66088 11.8429 4.60837 11.9214 4.57255 12.0078C4.53672 12.0941 4.51828 12.1867 4.51828 12.2802C4.51828 12.3737 4.53672 12.4663 4.57255 12.5527C4.60837 12.639 4.66088 12.7175 4.72706 12.7835L7.4964 15.5533C7.77462 15.8311 8.22529 15.8311 8.50351 15.5533L11.2728 12.7835C11.339 12.7175 11.3915 12.639 11.4274 12.5527C11.4632 12.4663 11.4816 12.3737 11.4816 12.2802C11.4816 12.1867 11.4632 12.0941 11.4274 12.0078C11.3915 11.9214 11.339 11.8429 11.2728 11.7769ZM6.99284 7.49688L4.22351 4.7271C4.15745 4.66085 4.07897 4.60829 3.99256 4.57242C3.90615 4.53656 3.81351 4.5181 3.71995 4.5181C3.6264 4.5181 3.53376 4.53656 3.44735 4.57242C3.36094 4.60829 3.28246 4.66085 3.2164 4.7271L0.447063 7.49688C0.38088 7.56293 0.328373 7.64139 0.292547 7.72776C0.256722 7.81412 0.238281 7.90671 0.238281 8.00021C0.238281 8.09372 0.256722 8.1863 0.292547 8.27267C0.328373 8.35904 0.38088 8.4375 0.447063 8.50355L3.2164 11.2733C3.49462 11.5511 3.94529 11.5511 4.22351 11.2733L6.99284 8.50355C7.05902 8.4375 7.11153 8.35904 7.14736 8.27267C7.18318 8.1863 7.20162 8.09372 7.20162 8.00021C7.20162 7.90671 7.18318 7.81412 7.14736 7.72776C7.11153 7.64139 7.05902 7.56293 6.99284 7.49688Z" fill="#55ACEE"/>
<path d="M6.99267 7.49692L5.56423 6.06803C5.12666 6.61689 4.88846 7.29809 4.88867 8.00003C4.88867 8.73069 5.14245 9.40136 5.56423 9.93203L6.99267 8.50358C7.05886 8.43753 7.11136 8.35908 7.14719 8.27271C7.18301 8.18634 7.20145 8.09375 7.20145 8.00025C7.20145 7.90675 7.18301 7.81416 7.14719 7.72779C7.11136 7.64142 7.05886 7.56297 6.99267 7.49692ZM9.93223 10.4356L8.50334 9.00669C8.36963 8.87344 8.18856 8.79861 7.99978 8.79861C7.81101 8.79861 7.62993 8.87344 7.49623 9.00669L6.06734 10.4356C6.61632 10.8733 7.29769 11.1114 7.99978 11.1111C8.70187 11.1114 9.38325 10.8733 9.93223 10.4356ZM9.00689 8.50358L10.4358 9.93247C10.8733 9.38343 11.1113 8.70207 11.1109 8.00003C11.1115 7.29803 10.8732 6.61672 10.4353 6.06803L9.00645 7.49692C8.87317 7.63055 8.79836 7.81161 8.79844 8.00034C8.79853 8.18908 8.8735 8.37007 9.00689 8.50358ZM8.50334 6.99292L9.93223 5.56447C9.38325 5.12681 8.70187 4.88861 7.99978 4.88892C7.29778 4.88836 6.61647 5.12659 6.06778 5.56447L7.49667 6.99292C7.56272 7.0591 7.64118 7.11161 7.72755 7.14743C7.81392 7.18326 7.9065 7.2017 8.00001 7.2017C8.09351 7.2017 8.1861 7.18326 8.27246 7.14743C8.35883 7.11161 8.43729 7.0591 8.50334 6.99292Z" fill="#3B88C3"/>
<path d="M7.99957 10.2222C9.22687 10.2222 10.2218 9.22729 10.2218 7.99999C10.2218 6.77269 9.22687 5.77777 7.99957 5.77777C6.77227 5.77777 5.77734 6.77269 5.77734 7.99999C5.77734 9.22729 6.77227 10.2222 7.99957 10.2222Z" fill="#BBDDF5"/>
</g>
<defs>
<clipPath id="clip0_31_17559">
<rect width="16" height="16" fill="white"/>
</clipPath>
</defs>
</svg>
