<svg width="61" height="62" viewBox="0 0 61 62" fill="none" xmlns="http://www.w3.org/2000/svg">
<g clip-path="url(#clip0_1_741)">
<g clip-path="url(#clip1_1_741)">
<g clip-path="url(#clip2_1_741)">
<g opacity="0.2">
<path d="M30.5649 61C47.1297 61 60.5 47.5649 60.5 30.9351C60.5 14.3703 47.1297 1 30.5649 1M30.5649 61C13.9351 61 0.5 47.5649 0.5 30.9351C0.5 14.3703 13.9351 1 30.5649 1M30.5649 61V1M56.5303 16H4.48919M56.6973 45.6351H4.32216M0.662162 31H60.3378" stroke="white" stroke-linecap="round" stroke-linejoin="round"/>
<path d="M30.5324 61C38.8157 61 45.5 47.5649 45.5 30.9351C45.5 14.3703 38.8157 1 30.5324 1C22.2168 1 15.5 14.3703 15.5 30.9351C15.5 47.5649 22.2168 61 30.5324 61Z" stroke="white" stroke-linecap="round" stroke-linejoin="round"/>
</g>
</g>
</g>
</g>
<defs>
<clipPath id="clip0_1_741">
<rect width="61" height="62" fill="white"/>
</clipPath>
<clipPath id="clip1_1_741">
<rect width="61" height="62" fill="white"/>
</clipPath>
<clipPath id="clip2_1_741">
<rect width="61" height="62" fill="white"/>
</clipPath>
</defs>
</svg>
